<svg width="250" height="250" viewBox="0 0 250 250" fill="none" xmlns="http://www.w3.org/2000/svg">
<path d="M125 250C194.036 250 250 194.036 250 125C250 55.9644 194.036 0 125 0C55.9644 0 0 55.9644 0 125C0 194.036 55.9644 250 125 250Z" fill="#006149"/>
<path d="M188.875 134.25L182.648 132.695L184.539 125.117L203.953 129.969L199.109 149.383L191.523 147.492L193.203 140.758L123.891 183.672L47.0234 145.266V115.953L126.898 66L200.141 101.727V113.789L123.898 161.156L67.2812 133.086L70.75 126.086L123.477 152.227L192.328 109.445V106.609L127.367 74.9219L54.8437 120.281V140.437L123.492 174.734L188.875 134.25Z" fill="white"/>
</svg>
